PathFileType	4	(X/Y/Z)	21_1_41_p0_0-335.trc
DataRate	CameraRate	NumFrames	NumMarkers	Units	OrigDataRate	OrigDataStartFrame	OrigNumFrames
56.0	56.0	6	27	m	56.0	42	336
Frame#	Time	RHip			RKnee			RAnkle			RBigToe			RSmallToe			RHeel			LHip			LKnee			LAnkle			LBigToe			LSmallToe			LHeel			Neck			Head			Nose			RShoulder			RElbow			RWrist			RThumb			RIndex			RPinky			LShoulder			LElbow			LWrist			LThumb			LIndex			LPinky			
		X1	Y1	Z1	X2	Y2	Z2	X3	Y3	Z3	X4	Y4	Z4	X5	Y5	Z5	X6	Y6	Z6	X7	Y7	Z7	X8	Y8	Z8	X9	Y9	Z9	X10	Y10	Z10	X11	Y11	Z11	X12	Y12	Z12	X13	Y13	Z13	X14	Y14	Z14	X15	Y15	Z15	X16	Y16	Z16	X17	Y17	Z17	X18	Y18	Z18	X19	Y19	Z19	X20	Y20	Z20	X21	Y21	Z21	X22	Y22	Z22	X23	Y23	Z23	X24	Y24	Z24	X25	Y25	Z25	X26	Y26	Z26	X27	Y27	Z27	
42	0.75	0.3088065661933375	0.481436152883967	1.0724206127491787	0.30030459829754563	0.5797965640911618	1.531133616944408	0.2733654046331166	0.6967915339881725	1.9829658840226883	0.27999091202420784	0.4760601987485103	1.9988201956407745	0.3361200377343144	0.5004258472515786	1.9999280015149548	0.25918026381982495	0.7021544319141986	1.9966449200402088	0.1022806893290257	0.5291727387040621	1.0910809454204702	0.0970091217225684	0.5839970370790462	1.539784961707226	0.10714946790214425	0.6154088696815357	1.9421236991477697	0.11069536486994035	0.4278942368306713	1.9754565481134805	0.05397326931785962	0.48368044565591123	1.989467886542965	0.134566560662649	0.686977984387699	2.010255748176084	0.21755978633151918	0.509858906983322	0.5106613610046272	0.24468621538733237	0.43626212532858594	0.2559162131164669	0.23930321015511138	0.39342210215000323	0.3977066725316584	0.3697907572475354	0.48338529122731394	0.5985868358713173	0.37227386061680606	0.465061364011207	0.8779375183154267	0.2578628645856767	0.3740804773922624	1.0459809494124506	0.1928080246231367	0.3560333269632505	1.1267730976714954	0.1897906759918683	0.3817769560350968	1.145561679853097	0.1901900698917279	0.3851859882537827	1.1551799620985554	0.07748541377260534	0.5015546221224213	0.5982958041401019	0.059326312603956086	0.4483075664090821	0.8615694345794372	0.1453816313355562	0.3634673569668614	1.0385243044604746	0.204510142719781	0.34389122625375823	1.115346468496054	0.2047267168478936	0.34376574471682014	1.1298120894844257	0.19958196219383267	0.35827273518798675	1.1381891752407751
43	0.7678571428571429	0.3124750425569295	0.4947047371582835	1.0798508709810166	0.2977075188082044	0.5691554213151642	1.5313078165024259	0.273292962547064	0.6966661700618146	1.9829297939440103	0.28040581316534974	0.4742409431162839	2.002155784324016	0.3359579937574147	0.5000843690220117	1.9996770465082445	0.25911981229559106	0.7019653381087523	1.996467010196868	0.1022891617825894	0.529063039884364	1.0911573847792757	0.09269408737056371	0.581353116304261	1.5391250384893582	0.10981274732964018	0.6291533053145211	1.9491180403285318	0.11069280967255186	0.42778942745758675	1.9753882647915626	0.05392999652598539	0.4837454340811222	1.9894954120869612	0.13456308413969326	0.6870059467846428	2.010227933352138	0.21755655631750778	0.5098609910639954	0.5106630576248842	0.24469784885889384	0.43631758917869506	0.25590857175898185	0.23933851132662332	0.39343797761665134	0.3976674098190165	0.3698035927575373	0.48336921739095245	0.5985495098459103	0.37231958344397004	0.46502834248544855	0.8779347033668853	0.2551570823150338	0.36348028900197377	1.043229609129992	0.19283755048844714	0.35598528890132075	1.126703557380971	0.1870533904882966	0.3705891328378216	1.1422362885380133	0.19017029093904894	0.385059929828229	1.1551743504860805	0.07761051994634934	0.5028272473601607	0.6015934691090834	0.05935981215988172	0.4482945034001237	0.8616739283686994	0.14538803561461558	0.36360442313825814	1.038591154180499	0.20459422353561404	0.34376163553348166	1.1153385391594275	0.208068327687906	0.35485117587165826	1.136487984422606	0.19964989025644966	0.35828255367016526	1.138277192963163
44	0.7857142857142857	0.3093155229637098	0.4828390586365221	1.0767928147450396	0.29758387829035104	0.5689062140530866	1.5311391824342335	0.27300341473217565	0.6990079246297066	1.9791802802629257	0.2799478571884596	0.47605523773194375	1.9987906537816982	0.3359387092979202	0.5001199709199207	1.9997013803611023	0.2625347038155833	0.7165047316379756	2.0042495816722896	0.10225211221844724	0.5289640765816104	1.091195657688589	0.09741949781097954	0.5854881188408576	1.5451921840833325	0.10984416359439839	0.6290878172295638	1.9492830385444104	0.11074609580374675	0.42724069390141634	1.975249934299418	0.05402146201223451	0.4834356294305317	1.9895413302875682	0.1346294983545983	0.6871181062623196	2.010272173341702	0.21756358913715632	0.5098968480769244	0.5106930346269987	0.2447015110925823	0.43629572240999803	0.2559088015685776	0.23936623572523452	0.3934345427063532	0.3976886014872725	0.3698233149409803	0.48333601286268807	0.5985784275518171	0.3723616099717282	0.46505886234502286	0.8780244759883218	0.2578795483776298	0.3741005975451298	1.046040844503869	0.19269934709562528	0.35607817024405025	1.126645632550407	0.1869542243491087	0.37066795796738744	1.1423338602801345	0.19015114595510288	0.38534094687040077	1.1554534789132591	0.07747125251022297	0.5015595584221707	0.5982689154635611	0.05930305596000063	0.4483846565764057	0.8616364002833863	0.14536250727645494	0.3634513949476016	1.038453519357316	0.2045156327962517	0.3438737499009542	1.1152446400809874	0.20475221964718157	0.3436900915288641	1.1296218538788791	0.19960655798155696	0.35815164083754125	1.1382431288992874
45	0.8035714285714286	0.3087806562911849	0.4812650427138532	1.0725125644682565	0.2974043916771421	0.568909458764644	1.531071763055688	0.270844014776864	0.6852996514866293	1.9815326292838789	0.280377454204409	0.47372701655730176	2.0020213538012186	0.3361824440614293	0.5005781691396579	2.000120232226352	0.2593201897749196	0.6999081418124579	2.0005637558529554	0.10229546345263232	0.5289976586026627	1.0911021741365199	0.09741563344821452	0.5855682796142209	1.5452369714669258	0.10981010030609178	0.628952435941792	1.9500213689815533	0.11123654231142219	0.42918734916465245	1.980800497876215	0.05409959375201624	0.4833367029507452	1.9897569722586002	0.13511300023429562	0.689581268699228	2.0162817634648524	0.21756034493487916	0.5098321558295601	0.5106874840393315	0.24468241827589327	0.43636311070045786	0.25589385077059557	0.23931197995090606	0.39355251179716766	0.3977013337927491	0.3661799657977284	0.4815595139981088	0.5984532692997766	0.37229167444614336	0.4650116676537804	0.877993096347315	0.2534493134582924	0.38695135911028977	1.0496133948929627	0.1926026868899992	0.3560517247059795	1.1268579084234942	0.1868940223772579	0.37065827734145207	1.1423737895773225	0.19013160331182274	0.3852891368386957	1.155406691690336	0.07760314783539199	0.5028335767633013	0.6015946855124865	0.05928030636974889	0.44842386988834015	0.8616127764246564	0.14534084328650532	0.36351234208586775	1.0385587761584534	0.20444354084829183	0.34402596726168855	1.1153963416595183	0.20744446165027153	0.3537220612396517	1.1326784541928374	0.1996441870569983	0.3582006685363207	1.1382757438816613
46	0.8214285714285714	0.30927432046775616	0.48277838264790995	1.0768877035711126	0.2965132122497263	0.5688737675508323	1.5359582187401981	0.27084449404639394	0.6852358684823189	1.98153460112015	0.2804939934591548	0.47417658081258546	2.0022623752568207	0.3361975768823618	0.5005972115818768	2.0001501345471255	0.2589245896404175	0.7017289658104403	1.996659615599164	0.10220629044006192	0.5287847436781636	1.0913623046514072	0.0932468205740685	0.5831555632917048	1.544590775797226	0.10981667057043625	0.6290101461851816	1.9498500336360514	0.11123264376295408	0.4293837151438961	1.9808722206834373	0.05406218738056013	0.4833553929580417	1.9896710264963555	0.13514214769241556	0.6896046848507603	2.0160343359664292	0.21755668423451072	0.5098171053200967	0.51066348199202	0.2446815003007468	0.43636872565613505	0.2559051577507455	0.23935505667121804	0.3934779438351728	0.39763613494793104	0.36615686998260555	0.48150011433310314	0.5984743075436195	0.3724492887060062	0.4651144581696212	0.878035314252809	0.2538364902849504	0.38844338482998364	1.0535202979336808	0.1926952673138033	0.3561096683349375	1.1266494067647828	0.18704260792227742	0.3706917274209774	1.1423191490756666	0.19025903191165308	0.38557290215098344	1.1556895617473102	0.07746799754558362	0.501485022431039	0.5982687845397882	0.05932987208682952	0.4483548518510143	0.8616199198484635	0.14539809610675997	0.36367980548669876	1.038710141999573	0.20446503459190402	0.34365936468512626	1.1156644772299575	0.20517671499250972	0.34490056792141094	1.1337230805969267	0.19956475761405174	0.35831529771184106	1.1383350749627958
47	0.8392857142857143	0.3087835899576306	0.48147194788297215	1.072697122977426	0.2972858093908422	0.5682694142290774	1.53089826244542	0.273980313392136	0.698987435386153	1.9888413073388416	0.2792138657612213	0.47558134264635404	2.0074083250802857	0.3392762071919525	0.5132293591014206	2.007255985510067	0.25359303449649295	0.7191470679548286	2.006628965683382	0.10226294767040527	0.528967610612136	1.0911785792716067	0.09646814898607933	0.5861784220674846	1.5496840316466578	0.11392796152620473	0.6317764539910835	1.9511281667269478	0.11074863456700812	0.4272793884735939	1.975309709984478	0.05399158391885639	0.4835586775790019	1.9897456858493485	0.13504290198322746	0.6897635488538437	2.0161637114527884	0.2175639226287246	0.509738585726884	0.5106604101832563	0.24469445816589905	0.4363425741929938	0.2558826839875585	0.23933582428200692	0.39339676869794404	0.3976424806289326	0.36618106095351577	0.4814822585487715	0.5984428830176833	0.37184714119109785	0.4637040196363843	0.8738130428784694	0.2538831302144521	0.38842382700683054	1.0536158149515942	0.1871079682104016	0.3680792443492216	1.1304179812327604	0.18192985323883384	0.38247192874656216	1.1495412092460198	0.18954375621517658	0.3861875298117121	1.159322033021817	0.07744791930288561	0.5012822719869359	0.5982080620579054	0.05929550791434243	0.44845920527673105	0.8616011666306911	0.14565868481150843	0.3653484102834097	1.0427655291980056	0.20434252846261736	0.34380852296985076	1.1155257720400826	0.20507039931795026	0.34497852353007125	1.1339258289588328	0.1996547622712264	0.3582589329430072	1.1385461605000347
